<?xml version="1.0" encoding="UTF-8" standalone="no"?>
<!DOCTYPE svg PUBLIC "-//W3C//DTD SVG 1.0//EN" "http://www.w3.org/TR/2001/PR-SVG-20010719/DTD/svg10.dtd">
<svg width="12cm" height="15cm" viewBox="319 253 230 285" xmlns="http://www.w3.org/2000/svg" xmlns:xlink="http://www.w3.org/1999/xlink">
  <g>
    <ellipse style="fill: #ffffff" cx="345" cy="447" rx="6" ry="6"/>
    <ellipse style="fill: none; fill-opacity:0; stroke-width: 2; stroke: #000000" cx="345" cy="447" rx="6" ry="6"/>
    <line style="fill: none; fill-opacity:0; stroke-width: 2; stroke: #000000" x1="321" y1="459" x2="369" y2="459"/>
    <line style="fill: none; fill-opacity:0; stroke-width: 2; stroke: #000000" x1="345" y1="453" x2="345" y2="483"/>
    <line style="fill: none; fill-opacity:0; stroke-width: 2; stroke: #000000" x1="345" y1="483" x2="321" y2="509"/>
    <line style="fill: none; fill-opacity:0; stroke-width: 2; stroke: #000000" x1="345" y1="483" x2="369" y2="509"/>
    <text font-size="12.7998" style="fill: #000000;text-anchor:middle;font-family:sans-serif;font-style:normal;font-weight:normal" x="345" y="532.9">
      <tspan x="345" y="532.9">SLURM</tspan>
    </text>
  </g>
  <g>
    <ellipse style="fill: #ffffff" cx="416" cy="317" rx="6" ry="6"/>
    <ellipse style="fill: none; fill-opacity:0; stroke-width: 2; stroke: #000000" cx="416" cy="317" rx="6" ry="6"/>
    <line style="fill: none; fill-opacity:0; stroke-width: 2; stroke: #000000" x1="392" y1="329" x2="440" y2="329"/>
    <line style="fill: none; fill-opacity:0; stroke-width: 2; stroke: #000000" x1="416" y1="323" x2="416" y2="353"/>
    <line style="fill: none; fill-opacity:0; stroke-width: 2; stroke: #000000" x1="416" y1="353" x2="392" y2="379"/>
    <line style="fill: none; fill-opacity:0; stroke-width: 2; stroke: #000000" x1="416" y1="353" x2="440" y2="379"/>
    <text font-size="12.7998" style="fill: #000000;text-anchor:middle;font-family:sans-serif;font-style:normal;font-weight:normal" x="416" y="402.9">
      <tspan x="416" y="402.9">Bioinformatics</tspan>
    </text>
  </g>
  <g>
    <ellipse style="fill: #ffffff" cx="468" cy="289" rx="6" ry="6"/>
    <ellipse style="fill: none; fill-opacity:0; stroke-width: 2; stroke: #000000" cx="468" cy="289" rx="6" ry="6"/>
    <line style="fill: none; fill-opacity:0; stroke-width: 2; stroke: #000000" x1="444" y1="301" x2="492" y2="301"/>
    <line style="fill: none; fill-opacity:0; stroke-width: 2; stroke: #000000" x1="468" y1="295" x2="468" y2="325"/>
    <line style="fill: none; fill-opacity:0; stroke-width: 2; stroke: #000000" x1="468" y1="325" x2="444" y2="351"/>
    <line style="fill: none; fill-opacity:0; stroke-width: 2; stroke: #000000" x1="468" y1="325" x2="492" y2="351"/>
    <text font-size="12.7998" style="fill: #000000;text-anchor:middle;font-family:sans-serif;font-style:normal;font-weight:normal" x="468" y="374.9">
      <tspan x="468" y="374.9">LSF</tspan>
    </text>
  </g>
  <g>
    <ellipse style="fill: #ffffff" cx="494" cy="370" rx="6" ry="6"/>
    <ellipse style="fill: none; fill-opacity:0; stroke-width: 2; stroke: #000000" cx="494" cy="370" rx="6" ry="6"/>
    <line style="fill: none; fill-opacity:0; stroke-width: 2; stroke: #000000" x1="470" y1="382" x2="518" y2="382"/>
    <line style="fill: none; fill-opacity:0; stroke-width: 2; stroke: #000000" x1="494" y1="376" x2="494" y2="406"/>
    <line style="fill: none; fill-opacity:0; stroke-width: 2; stroke: #000000" x1="494" y1="406" x2="470" y2="432"/>
    <line style="fill: none; fill-opacity:0; stroke-width: 2; stroke: #000000" x1="494" y1="406" x2="518" y2="432"/>
    <text font-size="12.7998" style="fill: #000000;text-anchor:middle;font-family:sans-serif;font-style:normal;font-weight:normal" x="494" y="455.9">
      <tspan x="494" y="455.9">SGE</tspan>
    </text>
  </g>
  <g>
    <ellipse style="fill: #ffffff" cx="523" cy="272" rx="6" ry="6"/>
    <ellipse style="fill: none; fill-opacity:0; stroke-width: 2; stroke: #000000" cx="523" cy="272" rx="6" ry="6"/>
    <line style="fill: none; fill-opacity:0; stroke-width: 2; stroke: #000000" x1="499" y1="284" x2="547" y2="284"/>
    <line style="fill: none; fill-opacity:0; stroke-width: 2; stroke: #000000" x1="523" y1="278" x2="523" y2="308"/>
    <line style="fill: none; fill-opacity:0; stroke-width: 2; stroke: #000000" x1="523" y1="308" x2="499" y2="334"/>
    <line style="fill: none; fill-opacity:0; stroke-width: 2; stroke: #000000" x1="523" y1="308" x2="547" y2="334"/>
    <text font-size="12.7998" style="fill: #000000;text-anchor:middle;font-family:sans-serif;font-style:normal;font-weight:normal" x="523" y="357.9">
      <tspan x="523" y="357.9">PBS</tspan>
    </text>
  </g>
</svg>
